{"title":"Cutthroat.Kitchen.Altons.After-Show.S01.720p.WEB-DL.x264-XAiO","uid":10342299,"size":986957468,"categoryP":"video","categoryS":"hd___tv_shows","magnet":"?xt=urn:btih:8e4685a23681f72b0035fddbace673038dc5359f&amp;dn=Cutthroat.Kitchen.Altons.After-Show.S01.720p.WEB-DL.x264-XAiO&amp;tr=udp%3A%2F%2Ftracker.openbittorrent.com%3A80&amp;tr=udp%3A%2F%2Fopen.demonii.com%3A1337&amp;tr=udp%3A%2F%2Ftracker.coppersurfer.tk%3A6969&amp;tr=udp%3A%2F%2Fexodus.desync.com%3A6969","seeders":1,"leechers":1,"uploader":"Reive","files":26,"time":1402561355,"description":"Video : WEB-DLRip - 1280x720 (WS) x264 @ 1614kbps\nAudio : AAC @ 192kbps\nRuntime : 5 min\n\nShow Information\nJust how far is a chef willing to go to win a cooking competition? Cutthroat Kitchen hands four chefs each $25,000 and the opportunity to spend that money on helping themselves or sabotaging their competitors. Ingredients will be thieved, utensils destroyed and valuable time on the clock lost when the chefs compete to cook delicious dishes while also having to outplot the competition. With Alton Brown as the devilish provocateur, nothing is out of bounds when money changes hands and we see just how far chefs will go to ensure they have the winning dish.\n\nSpecial Information\nHost Alton Brown sits down with Cutthroat Kitchen judges on his Web-exclusive After-Show to fill them in on the high-priced bidding and evilicious sabotages that led to the chefs' finished dishes\n\nNFO:\nDownloaded from Youtube using Keepvid. 720 MP4. Video - AVC, Audio - AAC. iOS compatible. I have nothing to do with the scene.\n\nScreenshots &lt;a href=&quot;\nhttp://i.imgur.com/PgD49Ap.png&quot; rel=&quot;nofollow&quot; target=&quot;_NEW&quot;&gt;\nhttp://i.imgur.com/PgD49Ap.png&lt;/a&gt; &lt;a href=&quot;\nhttp://i.imgur.com/6zW6sqD.png&quot; rel=&quot;nofollow&quot; target=&quot;_NEW&quot;&gt;\nhttp://i.imgur.com/6zW6sqD.png&lt;/a&gt;\n\nGeneral \nComplete name : J:TelevisionCutthroat KitchenCutthroat Kitchen SpecialsCutthroat.Kitchen.Altons.After-Show.S01.720p.WEB-DL.x264-XAiOAltons.After-Show.S00E01.Man.vs.Sabotage.Season.01.Episode.01.720p.WEB-DL.x264-XAiO.mp4 \nFormat : MPEG-4 \nFormat profile : Base Media / Version 2 \nCodec ID : mp42 \nFile size : 65.1 MiB \nDuration : 5mn 1s \nOverall bit rate mode : Variable \nOverall bit rate : 1 809 Kbps \nEncoded date : UTC 2014-01-13 08:02:30 \nTagged date : UTC 2014-01-13 08:02:30 \ngsst : 0 \ngstd : 301765 \ngssd : BADC23603MH1390620110247493 \ngshh : r3---sn-vgqs7nes.googlevideo.com \n\n[b]Video [/b]\nID : 1 \nFormat : AVC \nFormat/Info : Advanced Video Codec \nFormat profile : &lt;a class=&quot;__cf_email__&quot; href=&quot;/cdn-cgi/l/email-protection&quot; data-cfemail=&quot;c189a8a6a9818df2eff0&quot;&gt;[email&amp;#160;protected]&lt;/a&gt;&lt;script cf-hash='f9e31' type=&quot;text/javascript&quot;&gt;\n/* &lt;![CDATA[ */!function(){try{var t=&quot;currentScript&quot;in document?document.currentScript:function(){for(var t=document.getElementsByTagName(&quot;script&quot;),e=t.length;e--;)if(t[e].getAttribute(&quot;cf-hash&quot;))return t[e]}();if(t&amp;&amp;t.previousSibling){var e,r,n,i,c=t.previousSibling,a=c.getAttribute(&quot;data-cfemail&quot;);if(a){for(e=&quot;&quot;,r=parseInt(a.substr(0,2),16),n=2;a.length-n;n+=2)i=parseInt(a.substr(n,2),16)^r,e+=String.fromCharCode(i);e=document.createTextNode(e),c.parentNode.replaceChild(e,c)}}}catch(u){}}();/* ]]&gt; */&lt;/script&gt; \nFormat settings, CABAC : Yes \nFormat settings, ReFrames : 1 frame \nCodec ID : avc1 \nCodec ID/Info : Advanced Video Coding \nDuration : 5mn 1s \nBit rate : 1 614 Kbps \nMaximum bit rate : 3 421 Kbps \nWidth : 1 280 pixels \nHeight : 720 pixels \nDisplay aspect ratio : 16:9 \nFrame rate mode : Constant \nFrame rate : 23.976 fps \nColor space : YUV \nChroma subsampling : 4:2:0 \nBit depth : 8 bits \nScan type : Progressive \nBits/(Pixel*Frame) : 0.073 \nStream size : 58.1 MiB (89%) \nTagged date : UTC 2014-01-13 08:02:32 \n\nAudio \nID : 2 \nFormat : AAC \nFormat/Info : Advanced Audio Codec \nFormat profile : LC \nCodec ID : 40 \nDuration : 5mn 1s \nBit rate mode : Variable \nBit rate : 192 Kbps \nMaximum bit rate : 201 Kbps \nChannel(s) : 2 channels \nChannel positions : Front: L R \nSampling rate : 44.1 KHz \nCompression mode : Lossy \nStream size : 6.91 MiB (11%) \nTitle : IsoMedia File Produced by Google, 5-11-2011 \nEncoded date : UTC 2014-01-13 08:02:31 \nTagged date : UTC 2014-01-13 08:02:32 \n","torrent":{"xt":"urn:btih:8e4685a23681f72b0035fddbace673038dc5359f","amp;dn":"Cutthroat.Kitchen.Altons.After-Show.S01.720p.WEB-DL.x264-XAiO","amp;tr":["udp%3A%2F%2Ftracker.openbittorrent.com%3A80","udp%3A%2F%2Fopen.demonii.com%3A1337","udp%3A%2F%2Ftracker.coppersurfer.tk%3A6969","udp%3A%2F%2Fexodus.desync.com%3A6969"],"infoHash":"8e4685a23681f72b0035fddbace673038dc5359f","infoHashBuffer":{"type":"Buffer","data":[142,70,133,162,54,129,247,43,0,53,253,219,172,230,115,3,141,197,53,159]},"announce":[],"urlList":[]}}